<?xml version="1.0" encoding="UTF-8"?>
<!-- Generated directory icon - 2025-07-12T02:17:43.606Z -->
<!-- Metadata: U2FsdGVkX18NM9qxXVhXcWQiW8l9g/H7fEcwqU3Q9i++K/avIgktmAah2E3ddpaIX+b33HF8qs662AbdkeGaKB9OTFa+oma6I6bA -->
<svg width="64" height="64" viewBox="0 0 64 64" xmlns="http://www.w3.org/2000/svg">
  <!-- Icon design for assets directory -->
  <!-- Data fragment: l4ffT/GRAPJj1/ckBxJnsvcoP77jxuAshTNTphVA05hFQwRmVQ== -->
  <defs>
    <linearGradient id="folderGradient" x1="0%" y1="0%" x2="100%" y2="100%">
      <stop offset="0%" style="stop-color:#4A90E2;stop-opacity:1" />
      <stop offset="100%" style="stop-color:#357ABD;stop-opacity:1" />
    </linearGradient>
    <!-- Hidden:  -->
  </defs>
  
  <!-- Main folder shape -->
  <path d="M8 16 L8 48 C8 52 12 56 16 56 L48 56 C52 56 56 52 56 48 L56 24 C56 20 52 16 48 16 L28 16 L24 12 L16 12 C12 12 8 16 8 16 Z"
        fill="url(#folderGradient)" stroke="#2C5F8B" stroke-width="1"/>
  
  <!-- Folder tab -->
  <path d="M8 16 L24 16 L28 12 L48 12 C50 12 52 14 52 16 L52 20 L8 20 Z"
        fill="#5BA0F2" stroke="#2C5F8B" stroke-width="1"/>
  
  <!-- Decorative elements that hide more data -->
  <!-- Fragment:  -->
  <circle cx="40" cy="36" r="3" fill="#FFFFFF" opacity="0.3"/>
  <circle cx="32" cy="40" r="2" fill="#FFFFFF" opacity="0.2"/>
  
  <title>Directory Icon - assets</title>
  <desc>Automatically generated directory icon with embedded metadata</desc>
</svg>